<?xml version="1.0" encoding="UTF-8" standalone="no"?>
<svg
   xmlns:dc="http://purl.org/dc/elements/1.1/"
   xmlns:cc="http://creativecommons.org/ns#"
   xmlns:rdf="http://www.w3.org/1999/02/22-rdf-syntax-ns#"
   xmlns:svg="http://www.w3.org/2000/svg"
   xmlns="http://www.w3.org/2000/svg"
   xmlns:sodipodi="http://sodipodi.sourceforge.net/DTD/sodipodi-0.dtd"
   xmlns:inkscape="http://www.inkscape.org/namespaces/inkscape"
   inkscape:version="1.0 (6e3e5246a0, 2020-05-07)"
   sodipodi:docname="ml.svg"
   viewBox="0 0 154.889 166.96401"
   height="166.964"
   width="154.88901"
   xml:space="preserve"
   id="svg901"
   version="1.1"><metadata
     id="metadata907"><rdf:RDF><cc:Work
         rdf:about=""><dc:format>image/svg+xml</dc:format><dc:type
           rdf:resource="http://purl.org/dc/dcmitype/StillImage" /><dc:title /></cc:Work></rdf:RDF></metadata><defs
     id="defs905"><clipPath
       id="clipPath1973"
       clipPathUnits="userSpaceOnUse"><path
         id="path1971"
         d="m 2600.09,3650.82 v 0 98.65 h 147.87 l -7.27,-4.84 v 0.81 h -136.33 v -12.55 h 118.74 l -41.05,-27.39 h -15.48 v -10.32 l -10.8,-7.21 h -51.41 v -12.55 h 32.6 l -7.49,-5 h -25.11 v -12.55 h 6.3 l -10.57,-7.05 m 4.27,54.68 v -12.55 h 56.55 v 12.55 h -56.55" /></clipPath><clipPath
       id="clipPath4945"
       clipPathUnits="userSpaceOnUse"><path
         id="path4943"
         clip-rule="evenodd"
         d="m 3920.85,3668.94 c 0,3.06 2.52,5.58 5.67,5.58 h 225.54 l -14.4,-9.09 h 2.79 c 3.96,0 5.13,-2.43 5.13,-5.31 v -10.53 c 0,-3.51 -1.89,-5.4 -5.13,-5.4 h -4.68 c -3.42,0 -5.31,1.89 -5.31,5.4 v 10.35 c 0,0.36 0,0.72 0.09,0.99 l -9.45,-5.94 v -10.8 h -4.68 v 7.83 l -50.67,-31.86 v -13.68 h -4.59 v 10.71 l -12.87,-8.01 c -0.72,-1.71 -2.16,-2.61 -4.14,-2.7 l -40.23,-25.29 v -14.49 h -4.68 v 11.52 l -12.51,-7.92 c -0.54,-2.34 -2.25,-3.6 -4.95,-3.6 h -0.81 l -22.41,-14.13 v -20.34 h -4.68 v 16.65 l -1.89,-0.45 -10.35,-6.48 v -4.41 c 0,-3.42 -1.89,-5.31 -5.22,-5.31 h -4.59 c -1.53,0 -2.79,0.36 -3.69,1.17 l -7.29,-4.59 v 140.13 m 12.24,-132.39 h 1.98 c 1.17,0 1.89,0.36 1.89,1.89 v 0.54 l -3.87,-2.43 m 202.05,122.67 v -8.73 c 0,-1.71 1.08,-1.98 1.89,-1.98 h 2.07 c 1.17,0 1.89,0.36 1.89,1.89 v 8.82 c 0,1.35 -0.63,1.89 -1.71,1.89 h -2.43 c -1.53,0 -1.71,-1.26 -1.71,-1.89 m -116.55,-92.52 c -3.42,0 -5.31,1.8 -5.31,5.31 v 10.35 c 0,3.6 1.98,5.58 5.31,5.58 h 4.68 c 3.96,0 5.13,-2.43 5.13,-5.31 v -10.62 c 0,-3.42 -1.89,-5.31 -5.13,-5.31 h -4.68 m -0.63,15.03 v -8.82 c 0,-1.71 1.08,-1.89 1.89,-1.89 h 1.98 c 1.17,0 1.89,0.36 1.89,1.89 v 8.82 c 0,1.35 -0.54,1.89 -1.71,1.89 h -2.34 c -1.62,0 -1.71,-1.26 -1.71,-1.89 m 60.3,24.75 v 16.65 l -3.69,-0.81 v 3.06 l 3.78,2.34 h 4.59 v -21.24 h -4.68" /></clipPath></defs><sodipodi:namedview
     inkscape:current-layer="g911"
     inkscape:window-maximized="1"
     inkscape:window-y="0"
     inkscape:window-x="0"
     inkscape:cy="82.524542"
     inkscape:cx="101.32279"
     inkscape:zoom="3.4648232"
     inkscape:showpageshadow="false"
     showborder="true"
     showgrid="false"
     id="namedview903"
     inkscape:window-height="995"
     inkscape:window-width="1920"
     inkscape:pageshadow="2"
     inkscape:pageopacity="1"
     guidetolerance="10"
     gridtolerance="10"
     objecttolerance="10"
     borderopacity="1"
     bordercolor="#000000"
     pagecolor="#646464"
     inkscape:document-rotation="0" /><g
     transform="matrix(1.3333333,0,0,-1.3333333,0,600)"
     inkscape:label="ink_ext_XXXXXX"
     inkscape:groupmode="layer"
     id="g909"><g
       transform="scale(0.1)"
       id="g911"><path
         id="path3421"
         style="fill:#233452;fill-opacity:1;fill-rule:nonzero;stroke:#233452;stroke-width:13.43622079;stroke-miterlimit:4;stroke-dasharray:none;stroke-opacity:1"
         d="m 571.48315,4483.662 c -57.07708,0 -113.72886,-64.0098 -155.47338,-175.6294 -43.31819,-115.8125 -67.15698,-270.0019 -67.15698,-434.1472 0,-164.1452 23.83879,-318.3347 67.15698,-434.1678 41.74452,-111.5783 98.3963,-175.6088 155.47338,-175.6088 57.0983,0 113.74997,64.0305 155.49449,175.6088 43.31819,115.8538 67.15698,270.0432 67.15698,434.1678 0,164.1453 -23.83879,318.3347 -67.15698,434.1472 -41.74452,111.6196 -98.39619,175.6294 -155.49449,175.6294 z m 0,-1235.8913 c -65.51954,0 -126.36071,66.1992 -171.29502,186.3907 -43.95615,117.5681 -68.15648,273.7405 -68.15648,439.724 0,166.0042 24.20033,322.1559 68.15648,439.7447 44.93431,120.1915 105.77548,186.37 171.29502,186.37 65.51942,0 126.36059,-66.1785 171.29491,-186.37 43.95615,-117.5888 68.17769,-273.7405 68.17769,-439.7447 0,-165.9835 -24.22154,-322.1559 -68.17769,-439.724 -44.93432,-120.1915 -105.77549,-186.3907 -171.29491,-186.3907" /><path
         id="path3423"
         style="fill:#233452;fill-opacity:1;fill-rule:nonzero;stroke:#233452;stroke-width:13.43622079;stroke-miterlimit:4;stroke-dasharray:none;stroke-opacity:1"
         d="m 166.20195,4230.783 c -70.325557,0 -118.194569,-17.9905 -138.418258,-52.0093 -28.53848614,-48.0022 0.212653,-127.6685 78.853118,-218.5918 81.63893,-94.3519 207.17013,-191.513 353.52055,-273.5753 189.39196,-106.2079 382.52678,-169.6187 516.60688,-169.6187 70.34676,0 118.21586,17.9698 138.41826,52.0092 28.5598,48.0022 -0.1914,127.6891 -78.8319,218.5918 -81.63882,94.3519 -207.19136,191.513 -353.52044,273.5753 -189.41329,106.2079 -382.54812,169.6188 -516.62821,169.6188 z m 810.56229,-730.1539 c -136.90836,0 -333.16921,64.2577 -525.02812,171.8288 -147.98786,82.9711 -275.13529,181.4541 -357.986257,277.2313 -84.7011809,97.884 -113.28222,182.1357 -80.533118,237.2638 23.413485,39.3684 76.301172,60.1681 152.985205,60.1681 136.90835,0 333.19053,-64.2164 525.00689,-171.7875 148.00908,-83.0125 275.15652,-181.4541 358.00746,-277.2314 84.7012,-97.9046 113.2823,-182.177 80.5332,-237.2844 -23.3923,-39.3684 -76.3012,-60.1887 -152.98526,-60.1887" /><path
         id="path3425"
         style="fill:#233452;fill-opacity:1;fill-rule:nonzero;stroke:#233452;stroke-width:13.43622079;stroke-opacity:1;stroke-miterlimit:4;stroke-dasharray:none"
         d="m 976.76424,4230.783 c -134.0801,0 -327.21492,-63.3902 -516.60688,-169.6188 C 313.82828,3979.1019 188.27574,3881.9408 106.63681,3787.5889 27.996345,3696.6862 -0.75479414,3616.9993 27.783692,3568.9971 c 20.223689,-34.0394 68.092701,-52.0092 138.418258,-52.0092 134.08009,-0.021 327.19359,63.4108 516.62821,169.6187 146.32908,82.0623 271.88162,179.2234 353.52044,273.5753 78.6405,90.9233 107.3917,170.5896 78.8319,218.5918 -20.2024,34.0188 -68.0715,52.0093 -138.41826,52.0093 z M 166.22328,3500.6497 h -0.0217 c -76.684028,0 -129.571715,20.7997 -152.9852,60.1681 -32.749102,55.1074 -4.1680627,139.3798 80.533118,237.2844 82.850962,95.7773 209.998402,194.2189 357.986262,277.2314 191.83758,107.5711 388.11976,171.7875 525.02811,171.7875 76.68403,0 129.59303,-20.7997 152.98523,-60.1681 32.7491,-55.1281 4.1681,-139.3798 -80.5331,-237.2638 C 966.36503,3853.912 839.2176,3755.429 691.20851,3672.4579 499.39216,3564.8868 303.10998,3500.6497 166.22295,3500.6497" /><path
         id="path3427"
         style="fill:#61c5b0;fill-opacity:1;fill-rule:nonzero;stroke:none;stroke-width:2.09581"
         d="m 764.83052,4379.5609 c 0,38.1291 -31.79217,69.0082 -71.04851,69.0082 -39.21391,0 -71.0274,-30.8791 -71.0274,-69.0082 0,-38.1085 31.81349,-68.9877 71.0274,-68.9877 39.25634,0 71.04851,30.8792 71.04851,68.9877" /><path
         id="path3429"
         style="fill:#61c5b0;fill-opacity:1;fill-rule:nonzero;stroke:none;stroke-width:2.09581"
         d="m 247.30925,3527.0468 c 0,38.0878 -31.81349,68.9877 -71.04862,68.9877 -39.21391,0 -71.02729,-30.8999 -71.02729,-68.9877 0,-38.1085 31.81338,-69.0083 71.02729,-69.0083 39.23513,0 71.04862,30.8998 71.04862,69.0083" /><path
         id="path3431"
         style="fill:#61c5b0;fill-opacity:1;fill-rule:nonzero;stroke:none;stroke-width:2.09581"
         d="m 1161.6693,3723.7236 c 0,38.1085 -31.8135,69.0083 -71.0274,69.0083 -39.2352,0 -71.0273,-30.8998 -71.0273,-69.0083 0,-38.1291 31.7921,-69.0082 71.0273,-69.0082 39.2139,0 71.0274,30.8791 71.0274,69.0082" /><path
         id="path3433"
         style="fill:#61c5b0;fill-opacity:1;fill-rule:nonzero;stroke:none;stroke-width:0;stroke-miterlimit:4;stroke-dasharray:none"
         d="m 560.72714,4113.8213 c 0,41.2274 -34.47478,74.6498 -77.02223,74.6498 -42.12846,0 -76.31641,-32.7809 -76.9781,-73.4523 -6.37444,1.1119 -12.9252,1.732 -19.6305,1.732 -60.41346,0 -109.40152,-47.4715 -109.40152,-106.0624 0,-19.3948 5.3818,-37.5495 14.778,-53.1808 -9.85934,-15.3534 -15.59411,-33.4439 -15.59411,-52.8814 l 0.0887,-2.3309 c -20.11577,-18.2828 -32.71025,-44.2639 -32.71025,-73.1102 0,-35.0905 18.66009,-65.9897 46.82656,-83.8877 -0.90439,-5.3245 -1.38964,-10.7988 -1.38964,-16.3585 0,-53.4374 43.143,-97.1025 97.51297,-100.0749 9.35206,-37.3998 44.0694,-65.177 85.51404,-65.177 48.59107,0 88.0065,38.191 88.0065,85.2989 v 464.8139 0.022" /><path
         id="path3435"
         style="fill:#61c5b0;fill-opacity:1;fill-rule:nonzero;stroke:none;stroke-width:0;stroke-miterlimit:4;stroke-dasharray:none"
         d="m 581.54862,4113.8213 c 0,41.2274 34.49677,74.6498 77.02222,74.6498 42.12846,0 76.33841,-32.7809 77.00022,-73.4523 6.35232,1.1119 12.9032,1.732 19.6305,1.732 60.39134,0 109.35738,-47.4715 109.35738,-106.0624 0,-19.3948 -5.3819,-37.5495 -14.71184,-53.1808 9.8152,-15.3534 15.54996,-33.4439 15.54996,-52.8814 l -0.0663,-2.3309 c 20.09364,-18.2828 32.666,-44.2639 32.666,-73.1102 0,-35.0905 -18.63798,-65.9897 -46.80443,-83.8877 0.90437,-5.3245 1.41165,-10.7988 1.41165,-16.3585 0,-53.4374 -43.18714,-97.1025 -97.53499,-100.0749 -9.35205,-37.3998 -44.06939,-65.177 -85.51404,-65.177 -48.59106,0 -88.0065,38.191 -88.0065,85.2989 v 464.8139 0.022" /><path
         id="path3437"
         style="fill:#ffffff;fill-opacity:1;fill-rule:nonzero;stroke:none;stroke-width:2.17175;stroke-opacity:1"
         d="m 387.09631,4111.3835 c -57.28144,0 -103.86531,-45.162 -103.86531,-100.6951 0,-17.7269 4.85252,-35.1972 14.02816,-50.4865 l 1.67623,-2.8013 -1.76451,-2.737 c -9.6609,-14.9899 -14.73385,-32.2892 -14.73385,-50.0374 l 0.0438,-1.3045 0.0663,-3.3144 -1.78664,-1.6252 c -19.96135,-18.1546 -30.94562,-42.7243 -30.94562,-69.197 0,-32.0968 16.54262,-61.7558 44.28995,-79.3971 l 3.02175,-1.9247 -0.57342,-3.4426 c -0.88225,-5.1749 -1.32338,-10.3711 -1.32338,-15.4818 0,-50.2941 40.54027,-91.9064 92.28548,-94.7076 l 4.12456,-0.2353 0.94841,-3.8704 c 8.95506,-35.9457 41.90789,-61.0714 80.13224,-61.0714 45.45893,0 82.44815,35.8816 82.44815,79.9317 v 464.8139 c 0,38.2339 -32.04845,69.3042 -71.46388,69.3042 -38.77575,0 -70.82431,-30.5786 -71.44187,-68.1708 l -0.11006,-6.3082 -6.41847,1.112 c -6.22003,1.0906 -12.50621,1.6465 -18.63798,1.6465 z m 85.62433,-553.0638 c -41.95193,0 -78.36763,26.7294 -89.83716,65.4764 -55.69336,5.0252 -98.72608,50.4651 -98.72608,105.1428 0,4.5547 0.30883,9.195 0.9484,13.8139 -29.09285,19.8225 -46.38532,51.8764 -46.38532,86.4323 0,28.2476 11.88866,55.5543 32.644,75.334 v 0.1071 c 0,18.689 5.05106,36.9079 14.68983,52.9669 -9.08736,16.2516 -13.89574,34.5344 -13.89574,53.0953 0,61.4778 51.56868,111.4298 114.93774,111.4298 4.76424,0 9.59464,-0.2996 14.42514,-0.8983 3.904,40.586 39.52572,72.6185 82.18346,72.6185 45.52518,0 82.55844,-35.9028 82.55844,-80.0171 v -464.8354 c 0,-49.9733 -41.95192,-90.6662 -93.54271,-90.6662" /><path
         id="path3439"
         style="fill:#ffffff;fill-opacity:1;fill-rule:nonzero;stroke:none;stroke-width:2.17175"
         d="m 461.78049,3925.9882 -7.19056,8.1257 c 23.11551,19.2025 36.37168,47.1079 36.37168,76.5745 0,55.5331 -46.58387,100.6951 -103.8653,100.6951 -57.28144,0 -103.86531,-45.162 -103.86531,-100.6951 h -11.07243 c 0,61.4778 51.56868,111.4298 114.93774,111.4298 63.36906,0 114.93773,-49.952 114.93773,-111.4298 0,-32.6099 -14.66771,-63.4877 -40.25355,-84.7002" /><path
         id="path3441"
         style="fill:#ffffff;fill-opacity:1;fill-rule:nonzero;stroke:none;stroke-width:2.17175"
         d="m 475.67623,4067.4403 -6.30819,8.8315 c 17.64532,11.8678 28.89429,30.9206 30.06337,51.0425 l 11.07244,-0.6201 c -1.36752,-23.3723 -14.40301,-45.5469 -34.82762,-59.2539" /><path
         id="path3443"
         style="fill:#ffffff;fill-opacity:1;fill-rule:nonzero;stroke:none;stroke-width:2.17175"
         d="m 307.38319,3889.1015 c -12.28565,0 -24.43889,2.053 -35.84228,6.18 l 3.85997,10.0502 c 24.65945,-8.8955 53.22291,-6.9069 78.34561,5.4742 24.99029,12.2956 43.36357,33.2942 50.42173,57.6714 2.42631,8.254 3.63941,16.893 3.63941,25.639 h 11.05042 c 0,-9.7511 -1.34551,-19.3522 -4.0144,-28.5685 -7.91828,-27.2212 -28.34288,-50.6789 -56.06822,-64.3218 -16.32205,-8.0402 -34.01151,-12.1245 -51.39224,-12.1245" /><path
         id="path3445"
         style="fill:#ffffff;fill-opacity:1;fill-rule:nonzero;stroke:none;stroke-width:2.17175"
         d="m 460.96439,3845.5006 c -3.28646,0 -6.5729,0.2139 -9.88146,0.5987 -43.40771,5.239 -74.3092,43.7508 -68.9273,85.855 l 10.98417,-1.3471 c -4.63183,-36.2025 21.99068,-69.3256 59.33277,-73.8588 22.51996,-2.7371 44.92952,5.581 59.88406,22.1533 l 8.3374,-7.0566 c -15.19711,-16.8716 -36.98912,-26.3445 -59.72964,-26.3445" /><path
         id="path3447"
         style="fill:#ffffff;fill-opacity:1;fill-rule:nonzero;stroke:none;stroke-width:2.17175"
         d="m 552.14704,3598.8201 -9.63888,5.3032 c 12.85918,22.0463 16.05736,47.6425 9.08748,72.0624 -7.01413,24.4414 -23.40222,44.7344 -46.16487,57.2011 -28.36501,15.5244 -62.70736,16.3797 -91.86636,2.2666 l -4.94067,9.6011 c 32.46744,15.717 70.6919,14.7761 102.25509,-2.5232 25.34315,-13.8779 43.60614,-36.4803 51.37013,-63.6588 7.8081,-27.1784 4.21294,-55.6827 -10.10192,-80.2524" /><path
         id="path3449"
         style="fill:#ffffff;fill-opacity:1;fill-rule:nonzero;stroke:none;stroke-width:2.17175"
         d="m 381.69239,3628.3294 c -3.79373,36.7797 23.77719,70.865 60.17088,74.4146 l 1.12483,-10.6703 c -30.46036,-2.9723 -53.46559,-31.6475 -50.26731,-62.6752 l -11.0284,-1.0691" /><path
         id="path3451"
         style="fill:#ffffff;fill-opacity:1;fill-rule:nonzero;stroke:none;stroke-width:2.17175"
         d="M 295.22995,3728.9389 H 284.1574 c 0,58.2488 48.85576,105.6133 108.93837,105.6133 v -10.7345 c -53.97297,0 -97.86582,-42.5533 -97.86582,-94.8788" /><path
         id="path3453"
         style="fill:#ffffff;fill-opacity:1;fill-rule:nonzero;stroke:none;stroke-width:2.17175"
         d="m 473.27204,3751.413 h -11.07243 c 0,33.4439 28.05617,60.6651 62.55295,60.6651 v -10.7344 c -28.38714,0 -51.48052,-22.3887 -51.48052,-49.9307" /><path
         id="path3455"
         style="fill:#ffffff;fill-opacity:1;fill-rule:nonzero;stroke:none;stroke-width:2.17175"
         d="m 374.28138,4030.3399 -10.69757,2.7584 c 3.55114,12.9158 1.72038,26.366 -5.16135,37.8917 -6.88161,11.5685 -17.97616,19.8226 -31.27647,23.2654 l 2.86744,10.3496 c 16.14551,-4.1698 29.62224,-14.1988 38.00377,-28.2263 8.35953,-14.0276 10.56516,-30.386 6.26418,-46.0388" /><path
         id="path3457"
         style="fill:#ffffff;fill-opacity:1;fill-rule:nonzero;stroke:none;stroke-width:2.17175"
         d="m 487.56478,3559.902 -7.85215,7.5698 c 11.20484,10.9056 17.35861,25.3609 17.33661,40.7571 -0.0438,15.3961 -6.24204,29.8513 -17.49102,40.7142 l 7.85225,7.5913 c 13.32221,-12.8945 20.68919,-30.0226 20.7112,-48.2841 0.0438,-18.2403 -7.27872,-35.4326 -20.55689,-48.3483" /><path
         id="path3459"
         style="fill:#ffffff;fill-opacity:1;fill-rule:nonzero;stroke:none;stroke-width:2.17175"
         d="m 517.93698,4126.9936 c 0,6.9495 -5.80091,12.5734 -12.96934,12.5734 -7.12442,0 -12.94734,-5.6239 -12.94734,-12.5734 0,-6.9284 5.82292,-12.5523 12.94734,-12.5523 7.16843,0 12.96934,5.6239 12.96934,12.5523" /><path
         id="path3461"
         style="fill:#ffffff;fill-opacity:1;fill-rule:nonzero;stroke:none;stroke-width:2.17175"
         d="m 380.14844,4030.2116 c 0,6.9283 -5.82304,12.5521 -12.94734,12.5521 -7.19055,0 -12.94733,-5.6238 -12.94733,-12.5521 0,-6.9496 5.75678,-12.5521 12.94733,-12.5521 7.1243,0 12.94734,5.6025 12.94734,12.5521" /><path
         id="path3463"
         style="fill:#ffffff;fill-opacity:1;fill-rule:nonzero;stroke:none;stroke-width:2.17175"
         d="m 467.64756,3928.0624 c 0,6.9283 -5.77891,12.5522 -12.94734,12.5522 -7.16844,0 -12.94723,-5.6239 -12.94723,-12.5522 0,-6.9282 5.77879,-12.5735 12.94723,-12.5735 7.16843,0 12.94734,5.6453 12.94734,12.5735" /><path
         id="path3465"
         style="fill:#ffffff;fill-opacity:1;fill-rule:nonzero;stroke:none;stroke-width:2.17175"
         d="m 528.3037,3876.0791 c 0,6.9283 -5.7789,12.5521 -12.94734,12.5521 -7.16843,0 -12.94733,-5.6238 -12.94733,-12.5521 0,-6.9497 5.7789,-12.5521 12.94733,-12.5521 7.16844,0 12.94734,5.6024 12.94734,12.5521" /><path
         id="path3467"
         style="fill:#ffffff;fill-opacity:1;fill-rule:nonzero;stroke:none;stroke-width:2.17175"
         d="m 426.29118,3994.1163 c 0,6.9281 -5.77891,12.552 -12.94734,12.552 -7.16843,0 -12.94734,-5.6239 -12.94734,-12.552 0,-6.9284 5.77891,-12.5523 12.94734,-12.5523 7.16843,0 12.94734,5.6239 12.94734,12.5523" /><path
         id="path3469"
         style="fill:#ffffff;fill-opacity:1;fill-rule:nonzero;stroke:none;stroke-width:2.17175"
         d="m 406.04301,3829.2063 c 0,6.9069 -5.77879,12.5522 -12.94724,12.5522 -7.16843,0 -12.94733,-5.6453 -12.94733,-12.5522 0,-6.9496 5.7789,-12.5949 12.94733,-12.5949 7.16845,0 12.94724,5.6453 12.94724,12.5949" /><path
         id="path3471"
         style="fill:#ffffff;fill-opacity:1;fill-rule:nonzero;stroke:none;stroke-width:2.17175"
         d="m 426.95287,3741.0634 c 0,6.9283 -5.80092,12.5521 -12.94734,12.5521 -7.16843,0 -12.96935,-5.6238 -12.96935,-12.5521 0,-6.9496 5.80092,-12.5735 12.96935,-12.5735 7.14642,0 12.94734,5.6239 12.94734,12.5735" /><path
         id="path3473"
         style="fill:#ffffff;fill-opacity:1;fill-rule:nonzero;stroke:none;stroke-width:2.17175"
         d="m 454.25908,3697.3982 c 0,6.9284 -5.80091,12.5735 -12.94733,12.5735 -7.16844,0 -12.96935,-5.6451 -12.96935,-12.5735 0,-6.9282 5.80091,-12.552 12.96935,-12.552 7.14642,0 12.94733,5.6238 12.94733,12.552" /><path
         id="path3475"
         style="fill:#ffffff;fill-opacity:1;fill-rule:nonzero;stroke:none;stroke-width:2.17175"
         d="m 498.85788,3650.5897 c 0,6.9283 -5.80091,12.5521 -12.94733,12.5521 -7.16844,0 -12.94734,-5.6238 -12.94734,-12.5521 0,-6.9498 5.7789,-12.5736 12.94734,-12.5736 7.14642,0 12.94733,5.6238 12.94733,12.5736" /><path
         id="path3477"
         style="fill:#ffffff;fill-opacity:1;fill-rule:nonzero;stroke:none;stroke-width:2.17175"
         d="m 535.31772,3806.7109 c 0,6.9283 -5.82304,12.5521 -12.96936,12.5521 -7.14641,0 -12.94733,-5.6238 -12.94733,-12.5521 0,-6.9497 5.80092,-12.5735 12.94733,-12.5735 7.14632,0 12.96936,5.6238 12.96936,12.5735" /><path
         id="path3479"
         style="fill:#ffffff;fill-opacity:1;fill-rule:nonzero;stroke:none;stroke-width:2.17175"
         d="m 658.57084,4183.104 c -39.39331,0 -71.4859,-31.0703 -71.4859,-69.2827 v -464.8354 c 0,-44.0501 37.01125,-79.9317 82.47018,-79.9317 38.20233,0 71.15516,25.1257 80.13224,61.0714 l 0.97042,3.8704 4.10265,0.2353 c 51.74511,2.8012 92.28538,44.4135 92.28538,94.7076 0,5.1107 -0.44113,10.3069 -1.30126,15.4818 l -0.59555,3.4426 2.99973,1.9247 c 27.74735,17.6413 44.33399,47.3003 44.33399,79.3971 0,26.4727 -11.00628,51.0424 -30.94563,69.197 l -1.78652,1.6252 0.0663,3.3144 0.0438,1.3045 c 0,17.7482 -5.11721,35.0261 -14.73397,50.0374 l -1.76451,2.737 1.67635,2.8013 c 9.15351,15.3106 14.00602,32.7596 14.00602,50.4865 0,55.5331 -46.60599,100.6951 -103.84318,100.6951 -6.17589,0 -12.41804,-0.5559 -18.63796,-1.6465 l -6.4406,-1.112 -0.0887,6.3082 c -0.61756,37.5922 -32.71015,68.1708 -71.4639,68.1708 z m 10.98428,-624.7843 c -51.56868,0 -93.54272,40.6929 -93.54272,90.6662 v 464.8139 c 0,44.1358 37.03337,80.0386 82.55844,80.0386 42.67987,0 78.25745,-32.0325 82.18346,-72.6185 4.83051,0.5987 9.6609,0.8983 14.44726,0.8983 63.36907,0 114.91561,-49.952 114.91561,-111.4298 0,-18.5609 -4.78625,-36.8437 -13.89573,-53.0953 9.63888,-16.059 14.71185,-34.2779 14.71185,-52.9669 v -0.1071 c 20.73343,-19.7797 32.59997,-47.0864 32.59997,-75.334 0,-34.5559 -17.24845,-66.6098 -46.3413,-86.4323 0.61756,-4.6189 0.9484,-9.2592 0.9484,-13.8139 0,-54.6777 -43.07686,-100.1176 -98.72596,-105.1428 -11.51368,-38.747 -47.88524,-65.4764 -89.85928,-65.4764" /><path
         id="path3481"
         style="fill:#ffffff;fill-opacity:1;fill-rule:nonzero;stroke:none;stroke-width:2.17175"
         d="m 680.53939,3925.9882 c -25.60785,21.2125 -40.27568,52.069 -40.27568,84.7002 0,61.4778 51.52466,111.4298 114.93785,111.4298 63.36907,0 114.91561,-49.952 114.91561,-111.4298 h -11.07243 c 0,55.5331 -46.60599,100.6951 -103.84318,100.6951 -57.28143,0 -103.8653,-45.162 -103.8653,-100.6951 0,-29.4666 13.25606,-57.372 36.39369,-76.5745 l -7.19056,-8.1257" /><path
         id="path3483"
         style="fill:#ffffff;fill-opacity:1;fill-rule:nonzero;stroke:none;stroke-width:2.17175"
         d="m 666.62153,4067.4403 c -20.46862,13.707 -33.48212,35.8816 -34.82762,59.2539 l 11.05053,0.6201 c 1.14696,-20.1219 12.39582,-39.1747 30.06327,-51.0425 l -6.28618,-8.8315" /><path
         id="path3485"
         style="fill:#ffffff;fill-opacity:1;fill-rule:nonzero;stroke:none;stroke-width:2.17175"
         d="m 834.89256,3889.1015 c -17.3586,0 -35.04818,4.0843 -51.34811,12.1245 -27.74745,13.6429 -48.19396,37.1006 -56.09035,64.3218 -2.66888,9.2163 -4.05841,18.8174 -4.05841,28.5685 h 11.07244 c 0,-8.746 1.23522,-17.385 3.6174,-25.639 7.08016,-24.3772 25.45343,-45.3758 50.44373,-57.6714 25.14471,-12.3811 53.70817,-14.3697 78.36773,-5.4742 l 3.88199,-10.0502 c -11.44753,-4.127 -23.60077,-6.18 -35.88642,-6.18" /><path
         id="path3487"
         style="fill:#ffffff;fill-opacity:1;fill-rule:nonzero;stroke:none;stroke-width:2.17175"
         d="m 681.3555,3845.5006 c -22.74052,0 -44.57666,9.4729 -59.77378,26.3445 l 8.33739,7.0566 c 14.99856,-16.5723 37.36422,-24.8904 59.92821,-22.1533 18.08656,2.2025 34.18805,11.098 45.39278,25.0401 11.20484,13.9634 16.14562,31.2841 13.87372,48.8187 l 10.98428,1.3471 c 2.62475,-20.3785 -3.08789,-40.5433 -16.10138,-56.752 -13.01348,-16.2087 -31.78386,-26.5583 -52.80389,-29.103 -3.28646,-0.3848 -6.5729,-0.5987 -9.83733,-0.5987" /><path
         id="path3489"
         style="fill:#ffffff;fill-opacity:1;fill-rule:nonzero;stroke:none;stroke-width:2.17175"
         d="m 590.1287,3598.8201 c -14.31474,24.5697 -17.88801,53.074 -10.1019,80.2524 7.808,27.1785 26.02696,49.7809 51.34811,63.6588 31.58519,17.2993 69.80965,18.2402 102.29923,2.5232 l -4.94079,-9.6011 c -29.20312,14.1131 -63.54549,13.2578 -91.88837,-2.2666 -22.76265,-12.4667 -39.15074,-32.7597 -46.14275,-57.2011 -7.01401,-24.4199 -3.7717,-50.0161 9.06535,-72.0624 l -9.63888,-5.3032" /><path
         id="path3491"
         style="fill:#ffffff;fill-opacity:1;fill-rule:nonzero;stroke:none;stroke-width:2.17175"
         d="m 760.58337,3628.3294 -11.02842,1.0691 c 3.19829,31.0277 -19.82894,59.7029 -50.2673,62.6752 l 1.10282,10.6703 c 36.43782,-3.5496 63.98661,-37.6349 60.1929,-74.4146" /><path
         id="path3493"
         style="fill:#ffffff;fill-opacity:1;fill-rule:nonzero;stroke:none;stroke-width:2.17175"
         d="m 858.14036,3728.9389 h -11.09455 c 0,52.3255 -43.91499,94.8788 -97.86584,94.8788 v 10.7345 c 60.08261,0 108.96039,-47.3645 108.96039,-105.6133" /><path
         id="path3495"
         style="fill:#ffffff;fill-opacity:1;fill-rule:nonzero;stroke:none;stroke-width:2.17175"
         d="m 680.07625,3751.413 h -11.07254 c 0,27.542 -23.11551,49.9307 -51.50253,49.9307 v 10.7344 c 34.51878,0 62.57507,-27.2212 62.57507,-60.6651" /><path
         id="path3497"
         style="fill:#ffffff;fill-opacity:1;fill-rule:nonzero;stroke:none;stroke-width:2.17175"
         d="m 768.01649,4030.3399 c -4.34523,15.6528 -2.09535,32.0112 6.26417,46.0388 8.35941,14.0275 21.83615,24.0565 37.98166,28.2263 l 2.84531,-10.3496 c -13.25605,-3.4428 -24.37273,-11.6969 -31.25434,-23.2654 -6.88172,-11.5257 -8.7125,-24.9759 -5.13923,-37.8917 l -10.69757,-2.7584" /><path
         id="path3499"
         style="fill:#ffffff;fill-opacity:1;fill-rule:nonzero;stroke:none;stroke-width:2.17175"
         d="m 654.73299,3559.902 c -13.32232,12.9157 -20.60104,30.108 -20.60104,48.3483 0.0438,18.2615 7.41112,35.3896 20.75546,48.2841 l 7.80811,-7.5913 c -11.24897,-10.8629 -17.44689,-25.3181 -17.49102,-40.7142 0,-15.3962 6.15377,-29.8515 17.35861,-40.7571 l -7.83012,-7.5698" /><path
         id="path3501"
         style="fill:#ffffff;fill-opacity:1;fill-rule:nonzero;stroke:none;stroke-width:2.17175"
         d="m 624.36078,4126.9936 c 0,6.9495 5.77891,12.5734 12.94734,12.5734 7.14642,0 12.96946,-5.6239 12.96946,-12.5734 0,-6.9284 -5.82304,-12.5523 -12.96946,-12.5523 -7.16843,0 -12.94734,5.6239 -12.94734,12.5523" /><path
         id="path3503"
         style="fill:#ffffff;fill-opacity:1;fill-rule:nonzero;stroke:none;stroke-width:2.17175"
         d="m 762.14944,4030.2116 c 0,6.9283 5.80091,12.5521 12.94722,12.5521 7.14642,0 12.96946,-5.6238 12.96946,-12.5521 0,-6.9496 -5.82304,-12.5521 -12.96946,-12.5521 -7.14631,0 -12.94722,5.6025 -12.94722,12.5521" /><path
         id="path3505"
         style="fill:#ffffff;fill-opacity:1;fill-rule:nonzero;stroke:none;stroke-width:2.17175"
         d="m 674.6282,3928.0624 c 0,6.9283 5.80092,12.5522 12.94733,12.5522 7.16843,0 12.96936,-5.6239 12.96936,-12.5522 0,-6.9282 -5.80093,-12.5735 -12.96936,-12.5735 -7.14641,0 -12.94733,5.6453 -12.94733,12.5735" /><path
         id="path3507"
         style="fill:#ffffff;fill-opacity:1;fill-rule:nonzero;stroke:none;stroke-width:2.17175"
         d="m 613.97205,3876.0791 c 0,6.9283 5.80103,12.5521 12.94734,12.5521 7.16843,0 12.96934,-5.6238 12.96934,-12.5521 0,-6.9497 -5.80091,-12.5521 -12.96934,-12.5521 -7.14631,0 -12.94734,5.6024 -12.94734,12.5521" /><path
         id="path3509"
         style="fill:#ffffff;fill-opacity:1;fill-rule:nonzero;stroke:none;stroke-width:2.17175"
         d="m 715.98457,3994.1163 c 0,6.9281 5.80091,12.552 12.94734,12.552 7.16843,0 12.94733,-5.6239 12.94733,-12.552 0,-6.9284 -5.7789,-12.5523 -12.94733,-12.5523 -7.14643,0 -12.94734,5.6239 -12.94734,12.5523" /><path
         id="path3511"
         style="fill:#ffffff;fill-opacity:1;fill-rule:nonzero;stroke:none;stroke-width:2.17175"
         d="m 736.23275,3829.2063 c 0,6.9069 5.80091,12.5522 12.94722,12.5522 7.16855,0 12.96947,-5.6453 12.96947,-12.5522 0,-6.9496 -5.80092,-12.5949 -12.96947,-12.5949 -7.14631,0 -12.94722,5.6453 -12.94722,12.5949" /><path
         id="path3513"
         style="fill:#ffffff;fill-opacity:1;fill-rule:nonzero;stroke:none;stroke-width:2.17175"
         d="m 715.345,3741.0634 c 0,6.9283 5.80091,12.5521 12.94722,12.5521 7.16855,0 12.96947,-5.6238 12.96947,-12.5521 0,-6.9496 -5.80092,-12.5735 -12.96947,-12.5735 -7.14631,0 -12.94722,5.6239 -12.94722,12.5735" /><path
         id="path3515"
         style="fill:#ffffff;fill-opacity:1;fill-rule:nonzero;stroke:none;stroke-width:2.17175"
         d="m 688.03867,3697.3982 c 0,6.9284 5.77891,12.5735 12.94734,12.5735 7.16843,0 12.92521,-5.6451 12.92521,-12.5735 0,-6.9282 -5.75678,-12.552 -12.92521,-12.552 -7.16843,0 -12.94734,5.6238 -12.94734,12.552" /><path
         id="path3517"
         style="fill:#ffffff;fill-opacity:1;fill-rule:nonzero;stroke:none;stroke-width:2.17175"
         d="m 643.41787,3650.5897 c 0,6.9283 5.82304,12.5521 12.94733,12.5521 7.16843,0 12.96936,-5.6238 12.96936,-12.5521 0,-6.9498 -5.80093,-12.5736 -12.96936,-12.5736 -7.12429,0 -12.94733,5.6238 -12.94733,12.5736" /><path
         id="path3519"
         style="fill:#ffffff;fill-opacity:1;fill-rule:nonzero;stroke:none;stroke-width:2.17175"
         d="m 606.98016,3806.7109 c 0,6.9283 5.77879,12.5521 12.94722,12.5521 7.16855,0 12.96946,-5.6238 12.96946,-12.5521 0,-6.9497 -5.80091,-12.5735 -12.96946,-12.5735 -7.16843,0 -12.94722,5.6238 -12.94722,12.5735" /></g></g></svg>
